<!-- <svg width="1360" height="142" viewBox="0 0 1360 142" fill="none" xmlns="http://www.w3.org/2000/svg"> -->
<!-- <mask id="path-1-outside-1" maskUnits="userSpaceOnUse" x="0.265625" y="0.882812" width="1360" height="141" fill="black">
<rect fill="#a4def9" x="0.265625" y="0.882812" width="1360" height="141"/>
<path d="M119.312 40.2656C114.672 40.2656 111.438 38.0625 109.609 33.6562C102.859 33.6562 95.4531 35.2969 87.3906 38.5781C82.375 40.6406 79 42.5391 77.2656 44.2734C75.5312 46.0078 74.5938 47.3672 74.4531 48.3516C74.3594 49.3359 74.8516 50.1797 75.9297 50.8828C77.0078 51.5391 78.5078 52.1719 80.4297 52.7812C82.3984 53.3906 84.6719 54 87.25 54.6094C100.75 57.75 109.305 59.9297 112.914 61.1484C120.086 63.5391 125.453 66.1641 129.016 69.0234C132.391 71.8828 134.078 75.7734 134.078 80.6953C134.078 84.7734 132.812 88.2188 130.281 91.0312C127.797 93.8438 124.492 96.3516 120.367 98.5547C116.242 100.758 111.625 102.727 106.516 104.461C101.453 106.148 96.0859 107.602 90.4141 108.82C84.7891 110.039 79.2344 111.047 73.75 111.844C63.0156 113.344 53.8516 114.094 46.2578 114.094C32.4297 114.094 21.7656 112.43 14.2656 109.102C11.4531 107.836 9.15625 104.672 7.375 99.6094C5.96875 95.4375 5.26562 92.0156 5.26562 89.3438C5.26562 86.625 5.5 85.125 5.96875 84.8438C6.4375 84.5625 7.39844 84.5625 8.85156 84.8438C10.3047 85.0781 12.2031 85.5 14.5469 86.1094L22.9844 88.3594C36.0625 91.6406 49.8906 93.2812 64.4688 93.2812C75.2031 93.2812 84.2969 92.3203 91.75 90.3984C96.1562 89.2266 98.5 87.9141 98.7812 86.4609C98.9688 85.1953 95.5 83.625 88.375 81.75C85.1406 80.8594 81.3906 79.9219 77.125 78.9375C56.4531 73.9219 43.9844 70.6875 39.7188 69.2344C35.4531 67.7812 32.6641 66.4922 31.3516 65.3672C30.0859 64.2422 29.0312 63 28.1875 61.6406C26.6406 58.9688 25.8672 56.4375 25.8672 54.0469C25.8672 51.6094 25.9844 49.7344 26.2188 48.4219C26.5 47.1094 26.875 45.8906 27.3438 44.7656C28.3281 42.4688 29.5703 40.8984 31.0703 40.0547C43.1172 33.3047 60.8125 27.375 84.1562 22.2656C104.922 17.6719 122.008 15.375 135.414 15.375C138.133 15.375 140.172 15.8438 141.531 16.7812C143.875 18.5156 144.906 20.3672 144.625 22.3359C144.344 24.3047 143.734 26.1328 142.797 27.8203C141.906 29.4609 140.781 30.9609 139.422 32.3203C138.062 33.6328 136.539 34.8047 134.852 35.8359C133.211 36.8203 131.5 37.6406 129.719 38.2969C126.156 39.6094 122.688 40.2656 119.312 40.2656Z"/>
<path d="M250.586 13.8281C252.883 13.0312 255.438 12.6328 258.25 12.6328C261.109 12.6328 263.969 12.8438 266.828 13.2656C269.734 13.6875 272.781 14.3672 275.969 15.3047C279.156 16.2422 282.344 17.4375 285.531 18.8906C288.719 20.3438 291.578 22.0781 294.109 24.0938C299.781 28.5938 302.617 33.9375 302.617 40.125C302.617 47.4375 298.75 55.4531 291.016 64.1719C279.953 76.6406 264.109 87.75 243.484 97.5C230.5 103.594 217.469 107.906 204.391 110.438C197.922 111.656 191.617 112.266 185.477 112.266C179.383 112.266 174.109 111.445 169.656 109.805C165.25 108.117 161.641 106.031 158.828 103.547C156.062 101.062 154.047 98.3906 152.781 95.5312C151.516 92.6719 150.883 89.6484 150.883 86.4609C150.883 83.2734 151.82 79.5469 153.695 75.2812C155.617 71.0156 158.078 66.7969 161.078 62.625C164.125 58.4062 167.523 54.3281 171.273 50.3906C175.07 46.4062 178.844 42.7266 182.594 39.3516C189.062 33.5859 195.273 28.6406 201.227 24.5156C207.227 20.3438 212.289 17.0625 216.414 14.6719C220.539 12.2812 223.984 10.4531 226.75 9.1875C231.438 6.98438 234.297 5.88281 235.328 5.88281C236.359 5.88281 237.508 6.1875 238.773 6.79688C240.086 7.40625 241.516 8.13281 243.062 8.97656C246.906 11.1328 249.414 12.75 250.586 13.8281ZM185.125 91.5938C185.969 91.6406 187.539 91.6641 189.836 91.6641C192.133 91.6641 195.461 91.0781 199.82 89.9062C204.18 88.7344 208.633 87.1641 213.18 85.1953C217.727 83.1797 222.273 80.8594 226.82 78.2344C231.414 75.5625 235.797 72.7734 239.969 69.8672C244.141 66.9609 248.031 64.0078 251.641 61.0078C255.297 57.9609 258.461 55.0312 261.133 52.2188C266.852 46.2656 269.711 41.7422 269.711 38.6484C269.711 35.4609 267.789 33.0938 263.945 31.5469C261.367 30.4688 258.602 29.9297 255.648 29.9297C250.727 29.9297 246.672 30.3516 243.484 31.1953C229.797 37.6172 216.461 46.0078 203.477 56.3672C194.195 63.7734 187.562 70.7812 183.578 77.3906C181.516 80.8125 180.484 84 180.484 86.9531C180.484 89.8594 182.031 91.4062 185.125 91.5938Z"/>
<path d="M319 91.1719C318.156 91.5469 317.195 91.7344 316.117 91.7344C315.086 91.7344 313.914 90.9844 312.602 89.4844C311.336 87.9844 310.188 86.1094 309.156 83.8594C306.906 78.7969 305.781 73.8516 305.781 69.0234C305.781 65.9766 306.367 63.5625 307.539 61.7812C307.539 61.7812 309.719 59.3906 314.078 54.6094C316.141 52.2656 318.367 50.2031 320.758 48.4219C348.414 28.2656 376.422 17.4375 404.781 15.9375C408.766 15.7031 411.859 15.5859 414.062 15.5859C416.266 15.5859 418.047 15.9141 419.406 16.5703C420.812 17.1797 422.148 18 423.414 19.0312C424.68 20.0156 425.875 21.1406 427 22.4062C428.125 23.625 429.109 24.8438 429.953 26.0625C431.734 28.5469 432.625 30.3047 432.625 31.3359C432.625 32.3672 432.414 33.5859 431.992 34.9922C431.57 36.3516 431.078 37.8516 430.516 39.4922C429.953 41.0859 429.344 42.6797 428.688 44.2734L427.141 48.3516C420.156 66.3984 411.859 83.3438 402.25 99.1875C399.062 104.484 396.391 108.562 394.234 111.422C392.125 114.328 390.344 116.648 388.891 118.383C387.484 120.117 385.961 121.828 384.32 123.516C382.68 125.203 380.922 126.797 379.047 128.297C377.172 129.844 375.25 131.203 373.281 132.375C368.969 134.906 364.703 136.172 360.484 136.172C357.672 136.172 354.484 134.695 350.922 131.742C347.172 128.602 345.297 125.414 345.297 122.18C345.297 116.93 350.43 109.266 360.695 99.1875C366.086 93.8906 370.984 89.6016 375.391 86.3203C379.797 82.9922 382.984 80.7422 384.953 79.5703C392.312 65.6484 396.836 56.9297 398.523 53.4141L402.461 45.0469C404.43 40.6875 405.414 38.0859 405.414 37.2422C405.414 35.1328 404.289 34.0781 402.039 34.0781C399.789 34.0781 396.906 34.6172 393.391 35.6953C389.875 36.7734 386.102 38.25 382.07 40.125C378.039 41.9531 373.844 44.1094 369.484 46.5938C365.172 49.0312 360.93 51.6328 356.758 54.3984C352.633 57.1172 348.672 59.9297 344.875 62.8359C341.125 65.7422 337.797 68.5547 334.891 71.2734C328.469 77.2266 324.953 81.8203 324.344 85.0547C323.734 87.9609 321.953 90 319 91.1719Z"/>
<path d="M538.445 13.8281C540.742 13.0312 543.297 12.6328 546.109 12.6328C548.969 12.6328 551.828 12.8438 554.688 13.2656C557.594 13.6875 560.641 14.3672 563.828 15.3047C567.016 16.2422 570.203 17.4375 573.391 18.8906C576.578 20.3438 579.438 22.0781 581.969 24.0938C587.641 28.5938 590.477 33.9375 590.477 40.125C590.477 47.4375 586.609 55.4531 578.875 64.1719C567.812 76.6406 551.969 87.75 531.344 97.5C518.359 103.594 505.328 107.906 492.25 110.438C485.781 111.656 479.477 112.266 473.336 112.266C467.242 112.266 461.969 111.445 457.516 109.805C453.109 108.117 449.5 106.031 446.688 103.547C443.922 101.062 441.906 98.3906 440.641 95.5312C439.375 92.6719 438.742 89.6484 438.742 86.4609C438.742 83.2734 439.68 79.5469 441.555 75.2812C443.477 71.0156 445.938 66.7969 448.938 62.625C451.984 58.4062 455.383 54.3281 459.133 50.3906C462.93 46.4062 466.703 42.7266 470.453 39.3516C476.922 33.5859 483.133 28.6406 489.086 24.5156C495.086 20.3438 500.148 17.0625 504.273 14.6719C508.398 12.2812 511.844 10.4531 514.609 9.1875C519.297 6.98438 522.156 5.88281 523.188 5.88281C524.219 5.88281 525.367 6.1875 526.633 6.79688C527.945 7.40625 529.375 8.13281 530.922 8.97656C534.766 11.1328 537.273 12.75 538.445 13.8281ZM472.984 91.5938C473.828 91.6406 475.398 91.6641 477.695 91.6641C479.992 91.6641 483.32 91.0781 487.68 89.9062C492.039 88.7344 496.492 87.1641 501.039 85.1953C505.586 83.1797 510.133 80.8594 514.68 78.2344C519.273 75.5625 523.656 72.7734 527.828 69.8672C532 66.9609 535.891 64.0078 539.5 61.0078C543.156 57.9609 546.32 55.0312 548.992 52.2188C554.711 46.2656 557.57 41.7422 557.57 38.6484C557.57 35.4609 555.648 33.0938 551.805 31.5469C549.227 30.4688 546.461 29.9297 543.508 29.9297C538.586 29.9297 534.531 30.3516 531.344 31.1953C517.656 37.6172 504.32 46.0078 491.336 56.3672C482.055 63.7734 475.422 70.7812 471.438 77.3906C469.375 80.8125 468.344 84 468.344 86.9531C468.344 89.8594 469.891 91.4062 472.984 91.5938Z"/>
<path d="M644.688 55.0312C637.609 56.1562 631.797 56.7188 627.25 56.7188C622.75 56.7188 619 56.3906 616 55.7344C613 55.0781 610.188 54.0703 607.562 52.7109C601.609 49.6172 598.164 45.3281 597.227 39.8438C596.852 36.9844 597.625 35.2266 599.547 34.5703C600.109 34.3828 600.766 34.2891 601.516 34.2891C602.312 34.2891 603.133 34.4766 603.977 34.8516C607.023 37.0547 612.32 38.7188 619.867 39.8438C621.602 40.0781 622.984 40.1953 624.016 40.1953C625.047 40.1953 626.406 40.1484 628.094 40.0547C629.781 39.9609 631.562 39.7734 633.438 39.4922C637.984 38.8359 641.641 37.7578 644.406 36.2578C647.219 34.7109 649.773 33.0234 652.07 31.1953C654.367 29.3672 656.523 27.5625 658.539 25.7812L664.375 20.5781C668.312 17.0625 671.898 14.7656 675.133 13.6875C678.367 12.6094 680.898 12.0703 682.727 12.0703C684.555 12.0703 686.266 12.3516 687.859 12.9141C689.5 13.4297 691.141 14.1562 692.781 15.0938C696.906 17.4375 698.969 19.875 698.969 22.4062C698.969 25.7812 697.094 29.5312 693.344 33.6562C689.453 37.875 684.742 41.2734 679.211 43.8516C662.148 64.2891 652.375 76.125 649.891 79.3594L659.875 83.0156C672.297 87.7031 681.625 90.0469 687.859 90.0469C691.141 90.0469 695.078 88.7109 699.672 86.0391C701.125 85.1953 702.438 84.1406 703.609 82.875C705.906 80.3906 708.133 79.1484 710.289 79.1484C712.445 79.1484 714.016 79.7812 715 81.0469C716.031 82.3125 716.359 83.8359 715.984 85.6172C715.656 87.3984 714.953 89.3203 713.875 91.3828C712.797 93.3984 711.414 95.5312 709.727 97.7812C708.086 99.9844 706.164 102.211 703.961 104.461C701.805 106.664 699.484 108.656 697 110.438C691.328 114.375 685.938 116.344 680.828 116.344C677.453 116.344 672.133 115.242 664.867 113.039L638.922 105.375C635.547 104.391 632.359 103.547 629.359 102.844C623.359 108 616.867 111.141 609.883 112.266C607.352 112.641 604.68 112.828 601.867 112.828C599.055 112.828 596.852 112.453 595.258 111.703C593.664 111 592.445 110.062 591.602 108.891C590.242 106.922 589.562 103.875 589.562 99.75C589.562 97.3594 591.438 94.1016 595.188 89.9766C601.703 82.8984 608.922 78 616.844 75.2812C619.656 74.2969 622.094 73.8047 624.156 73.8047C626.266 73.8047 628.516 73.9688 630.906 74.2969C639.109 64.3125 643.703 57.8906 644.688 55.0312ZM675.273 45.4688C675.086 45.7031 675.039 45.7969 675.133 45.75C675.227 45.7031 675.438 45.5625 675.766 45.3281L675.273 45.4688Z"/>
<path d="M799.867 108.68C798.086 106.992 796.75 105.094 795.859 102.984C794.969 100.828 794.523 98.9766 794.523 97.4297C794.523 95.8359 794.945 93.9609 795.789 91.8047C796.633 89.6484 797.781 87.1641 799.234 84.3516C800.688 81.4922 802.375 78.3984 804.297 75.0703C806.219 71.6953 808.281 68.2969 810.484 64.875L817.094 54.6797C819.391 51.3516 821.641 48.2578 823.844 45.3984C814.469 48.3984 807.508 51.3281 802.961 54.1875C798.461 57 794.992 59.0625 792.555 60.375C790.117 61.6875 788.102 62.3438 786.508 62.3438C783.883 62.3438 782.57 60.7031 782.57 57.4219C782.57 52.7344 785.008 46.9688 789.883 40.125C794.945 33.0469 800.172 28.6641 805.562 26.9766C811 25.2891 817.047 23.6953 823.703 22.1953C830.406 20.6484 837.367 19.3125 844.586 18.1875C860.242 15.75 874.797 14.5312 888.25 14.5312C903.625 14.5312 913.445 15.9844 917.711 18.8906C921.508 21.4688 924.086 25.0312 925.445 29.5781C926.102 31.7812 926.43 34.1484 926.43 36.6797C926.43 39.2109 925.188 41.8594 922.703 44.625C920.266 47.3438 917.008 49.9219 912.93 52.3594C905.242 57.0469 895.164 61.2656 882.695 65.0156C889.773 66.375 894.672 67.9453 897.391 69.7266C900.156 71.4609 902.102 73.2188 903.227 75C904.352 76.7344 904.914 78.9609 904.914 81.6797C904.914 84.3516 903.742 87.1172 901.398 89.9766C899.055 92.8359 895.797 95.5078 891.625 97.9922C887.5 100.477 882.602 102.727 876.93 104.742C871.305 106.758 865.188 108.469 858.578 109.875C844.797 112.875 830.453 114.375 815.547 114.375C809.078 114.375 803.852 112.477 799.867 108.68ZM839.031 55.875C832 68.0625 828.484 76.5 828.484 81.1875C828.484 83.3438 829.609 85.3594 831.859 87.2344C833.969 89.0156 836.172 89.9062 838.469 89.9062C840.766 89.9062 843.297 89.8125 846.062 89.625C848.828 89.3906 851.664 89.0859 854.57 88.7109C857.477 88.3359 860.336 87.8906 863.148 87.375C865.961 86.8594 868.469 86.2734 870.672 85.6172C875.547 84.1641 877.984 82.6875 877.984 81.1875C877.984 78.4688 874.211 76.2188 866.664 74.4375C860.523 73.0312 854.664 72.3281 849.086 72.3281C846.93 72.3281 845.383 71.9062 844.445 71.0625C843.508 70.1719 843.039 69.1641 843.039 68.0391C843.039 66.8672 843.602 65.6719 844.727 64.4531C845.898 63.1875 847.469 62.1562 849.438 61.3594C865.375 57.375 878.688 52.8984 889.375 47.9297C894.625 45.4922 897.25 43.6406 897.25 42.375C897.25 40.5469 896.711 39.0703 895.633 37.9453C893.711 35.9297 891.578 34.9219 889.234 34.9219C886.891 34.9219 884.219 35.0156 881.219 35.2031C878.219 35.3906 874.984 35.6719 871.516 36.0469C863.875 36.7969 856.305 37.875 848.805 39.2812C847.727 41.4844 846.297 43.9688 844.516 46.7344L839.031 55.875Z"/>
<path d="M1029.09 13.8281C1031.38 13.0312 1033.94 12.6328 1036.75 12.6328C1039.61 12.6328 1042.47 12.8438 1045.33 13.2656C1048.23 13.6875 1051.28 14.3672 1054.47 15.3047C1057.66 16.2422 1060.84 17.4375 1064.03 18.8906C1067.22 20.3438 1070.08 22.0781 1072.61 24.0938C1078.28 28.5938 1081.12 33.9375 1081.12 40.125C1081.12 47.4375 1077.25 55.4531 1069.52 64.1719C1058.45 76.6406 1042.61 87.75 1021.98 97.5C1009 103.594 995.969 107.906 982.891 110.438C976.422 111.656 970.117 112.266 963.977 112.266C957.883 112.266 952.609 111.445 948.156 109.805C943.75 108.117 940.141 106.031 937.328 103.547C934.562 101.062 932.547 98.3906 931.281 95.5312C930.016 92.6719 929.383 89.6484 929.383 86.4609C929.383 83.2734 930.32 79.5469 932.195 75.2812C934.117 71.0156 936.578 66.7969 939.578 62.625C942.625 58.4062 946.023 54.3281 949.773 50.3906C953.57 46.4062 957.344 42.7266 961.094 39.3516C967.562 33.5859 973.773 28.6406 979.727 24.5156C985.727 20.3438 990.789 17.0625 994.914 14.6719C999.039 12.2812 1002.48 10.4531 1005.25 9.1875C1009.94 6.98438 1012.8 5.88281 1013.83 5.88281C1014.86 5.88281 1016.01 6.1875 1017.27 6.79688C1018.59 7.40625 1020.02 8.13281 1021.56 8.97656C1025.41 11.1328 1027.91 12.75 1029.09 13.8281ZM963.625 91.5938C964.469 91.6406 966.039 91.6641 968.336 91.6641C970.633 91.6641 973.961 91.0781 978.32 89.9062C982.68 88.7344 987.133 87.1641 991.68 85.1953C996.227 83.1797 1000.77 80.8594 1005.32 78.2344C1009.91 75.5625 1014.3 72.7734 1018.47 69.8672C1022.64 66.9609 1026.53 64.0078 1030.14 61.0078C1033.8 57.9609 1036.96 55.0312 1039.63 52.2188C1045.35 46.2656 1048.21 41.7422 1048.21 38.6484C1048.21 35.4609 1046.29 33.0938 1042.45 31.5469C1039.87 30.4688 1037.1 29.9297 1034.15 29.9297C1029.23 29.9297 1025.17 30.3516 1021.98 31.1953C1008.3 37.6172 994.961 46.0078 981.977 56.3672C972.695 63.7734 966.062 70.7812 962.078 77.3906C960.016 80.8125 958.984 84 958.984 86.9531C958.984 89.8594 960.531 91.4062 963.625 91.5938Z"/>
<path d="M1197.2 40.2656C1192.56 40.2656 1189.33 38.0625 1187.5 33.6562C1180.75 33.6562 1173.34 35.2969 1165.28 38.5781C1160.27 40.6406 1156.89 42.5391 1155.16 44.2734C1153.42 46.0078 1152.48 47.3672 1152.34 48.3516C1152.25 49.3359 1152.74 50.1797 1153.82 50.8828C1154.9 51.5391 1156.4 52.1719 1158.32 52.7812C1160.29 53.3906 1162.56 54 1165.14 54.6094C1178.64 57.75 1187.2 59.9297 1190.8 61.1484C1197.98 63.5391 1203.34 66.1641 1206.91 69.0234C1210.28 71.8828 1211.97 75.7734 1211.97 80.6953C1211.97 84.7734 1210.7 88.2188 1208.17 91.0312C1205.69 93.8438 1202.38 96.3516 1198.26 98.5547C1194.13 100.758 1189.52 102.727 1184.41 104.461C1179.34 106.148 1173.98 107.602 1168.3 108.82C1162.68 110.039 1157.12 111.047 1151.64 111.844C1140.91 113.344 1131.74 114.094 1124.15 114.094C1110.32 114.094 1099.66 112.43 1092.16 109.102C1089.34 107.836 1087.05 104.672 1085.27 99.6094C1083.86 95.4375 1083.16 92.0156 1083.16 89.3438C1083.16 86.625 1083.39 85.125 1083.86 84.8438C1084.33 84.5625 1085.29 84.5625 1086.74 84.8438C1088.2 85.0781 1090.09 85.5 1092.44 86.1094L1100.88 88.3594C1113.95 91.6406 1127.78 93.2812 1142.36 93.2812C1153.09 93.2812 1162.19 92.3203 1169.64 90.3984C1174.05 89.2266 1176.39 87.9141 1176.67 86.4609C1176.86 85.1953 1173.39 83.625 1166.27 81.75C1163.03 80.8594 1159.28 79.9219 1155.02 78.9375C1134.34 73.9219 1121.88 70.6875 1117.61 69.2344C1113.34 67.7812 1110.55 66.4922 1109.24 65.3672C1107.98 64.2422 1106.92 63 1106.08 61.6406C1104.53 58.9688 1103.76 56.4375 1103.76 54.0469C1103.76 51.6094 1103.88 49.7344 1104.11 48.4219C1104.39 47.1094 1104.77 45.8906 1105.23 44.7656C1106.22 42.4688 1107.46 40.8984 1108.96 40.0547C1121.01 33.3047 1138.7 27.375 1162.05 22.2656C1182.81 17.6719 1199.9 15.375 1213.3 15.375C1216.02 15.375 1218.06 15.8438 1219.42 16.7812C1221.77 18.5156 1222.8 20.3672 1222.52 22.3359C1222.23 24.3047 1221.62 26.1328 1220.69 27.8203C1219.8 29.4609 1218.67 30.9609 1217.31 32.3203C1215.95 33.6328 1214.43 34.8047 1212.74 35.8359C1211.1 36.8203 1209.39 37.6406 1207.61 38.2969C1204.05 39.6094 1200.58 40.2656 1197.2 40.2656Z"/>
<path d="M1241.22 109.102C1237.61 107.508 1234.77 105.516 1232.71 103.125C1230.7 100.734 1229.36 98.4844 1228.7 96.375C1227.67 93.2344 1227.16 90.5391 1227.16 88.2891C1227.16 86.0391 1227.88 83.4609 1229.34 80.5547C1230.84 77.6484 1233.3 74.7656 1236.72 71.9062C1244.22 65.6719 1255.73 60.3281 1271.24 55.875C1266.27 53.7656 1263.44 50.4141 1262.73 45.8203C1262.03 40.5703 1264.28 35.9062 1269.48 31.8281C1279.09 24.2812 1297.56 19.1719 1324.89 16.5C1333.33 15.7031 1339.45 15.3047 1343.24 15.3047C1347.09 15.3047 1349.8 15.9141 1351.4 17.1328C1353.04 18.3516 1354 20.1797 1354.28 22.6172C1354.61 25.0078 1354.16 27.0234 1352.95 28.6641C1351.73 30.3047 1349.99 31.6172 1347.74 32.6016C1343.57 34.4297 1337.88 35.3438 1330.66 35.3438C1325.36 35.3438 1320.53 34.5469 1316.17 32.9531C1315 32.4844 1314.09 31.9922 1313.43 31.4766C1304.05 34.3828 1298.73 37.6406 1297.47 41.25C1297.09 42.1875 1296.95 43.0547 1297.05 43.8516C1297.47 46.7109 1299.34 48.8203 1302.67 50.1797C1306 51.5391 1311.06 52.4062 1317.86 52.7812C1320.11 52.9688 1321.77 53.5781 1322.85 54.6094C1323.98 55.6406 1324.61 56.7188 1324.75 57.8438C1324.94 58.9688 1324.87 59.8594 1324.54 60.5156C1324.21 61.125 1323.72 61.6406 1323.06 62.0625C1321.94 62.8125 1319.71 63.4453 1316.38 63.9609C1313.05 64.4766 1309.19 65.2031 1304.78 66.1406C1300.38 67.0312 1296.18 67.9922 1292.2 69.0234C1288.21 70.0547 1284.51 71.1094 1281.09 72.1875C1277.71 73.2656 1274.78 74.2969 1272.3 75.2812C1267.05 77.4844 1264.52 79.2656 1264.7 80.625C1264.89 81.9375 1265.43 83.0859 1266.32 84.0703C1267.21 85.0547 1268.41 85.9219 1269.91 86.6719C1272.72 87.9844 1276.14 88.8281 1280.17 89.2031C1284.25 89.5312 1288.19 89.6953 1291.98 89.6953C1295.83 89.6953 1299.93 89.3906 1304.29 88.7812C1308.7 88.125 1312.8 87.3047 1316.59 86.3203C1320.44 85.3359 1323.95 84.3047 1327.14 83.2266C1330.38 82.1016 1333.19 81.0469 1335.58 80.0625L1341.34 77.6719C1342.84 77.0156 1344.2 76.6875 1345.42 76.6875C1348.66 76.6875 1350.48 78.3984 1350.91 81.8203C1351.47 86.4609 1346.27 91.6875 1335.3 97.5C1320.62 105.328 1304.41 110.438 1286.64 112.828C1282.52 113.391 1277.55 113.672 1271.73 113.672C1265.97 113.672 1260.34 113.297 1254.86 112.547C1249.38 111.797 1244.83 110.648 1241.22 109.102Z"/>
</mask> -->
<!-- <path d="M119.312 40.2656C114.672 40.2656 111.438 38.0625 109.609 33.6562C102.859 33.6562 95.4531 35.2969 87.3906 38.5781C82.375 40.6406 79 42.5391 77.2656 44.2734C75.5312 46.0078 74.5938 47.3672 74.4531 48.3516C74.3594 49.3359 74.8516 50.1797 75.9297 50.8828C77.0078 51.5391 78.5078 52.1719 80.4297 52.7812C82.3984 53.3906 84.6719 54 87.25 54.6094C100.75 57.75 109.305 59.9297 112.914 61.1484C120.086 63.5391 125.453 66.1641 129.016 69.0234C132.391 71.8828 134.078 75.7734 134.078 80.6953C134.078 84.7734 132.812 88.2188 130.281 91.0312C127.797 93.8438 124.492 96.3516 120.367 98.5547C116.242 100.758 111.625 102.727 106.516 104.461C101.453 106.148 96.0859 107.602 90.4141 108.82C84.7891 110.039 79.2344 111.047 73.75 111.844C63.0156 113.344 53.8516 114.094 46.2578 114.094C32.4297 114.094 21.7656 112.43 14.2656 109.102C11.4531 107.836 9.15625 104.672 7.375 99.6094C5.96875 95.4375 5.26562 92.0156 5.26562 89.3438C5.26562 86.625 5.5 85.125 5.96875 84.8438C6.4375 84.5625 7.39844 84.5625 8.85156 84.8438C10.3047 85.0781 12.2031 85.5 14.5469 86.1094L22.9844 88.3594C36.0625 91.6406 49.8906 93.2812 64.4688 93.2812C75.2031 93.2812 84.2969 92.3203 91.75 90.3984C96.1562 89.2266 98.5 87.9141 98.7812 86.4609C98.9688 85.1953 95.5 83.625 88.375 81.75C85.1406 80.8594 81.3906 79.9219 77.125 78.9375C56.4531 73.9219 43.9844 70.6875 39.7188 69.2344C35.4531 67.7812 32.6641 66.4922 31.3516 65.3672C30.0859 64.2422 29.0312 63 28.1875 61.6406C26.6406 58.9688 25.8672 56.4375 25.8672 54.0469C25.8672 51.6094 25.9844 49.7344 26.2188 48.4219C26.5 47.1094 26.875 45.8906 27.3438 44.7656C28.3281 42.4688 29.5703 40.8984 31.0703 40.0547C43.1172 33.3047 60.8125 27.375 84.1562 22.2656C104.922 17.6719 122.008 15.375 135.414 15.375C138.133 15.375 140.172 15.8438 141.531 16.7812C143.875 18.5156 144.906 20.3672 144.625 22.3359C144.344 24.3047 143.734 26.1328 142.797 27.8203C141.906 29.4609 140.781 30.9609 139.422 32.3203C138.062 33.6328 136.539 34.8047 134.852 35.8359C133.211 36.8203 131.5 37.6406 129.719 38.2969C126.156 39.6094 122.688 40.2656 119.312 40.2656Z" stroke="#a4def9" stroke-width="5" mask="url(#path-1-outside-1)"/>
<path d="M250.586 13.8281C252.883 13.0312 255.438 12.6328 258.25 12.6328C261.109 12.6328 263.969 12.8438 266.828 13.2656C269.734 13.6875 272.781 14.3672 275.969 15.3047C279.156 16.2422 282.344 17.4375 285.531 18.8906C288.719 20.3438 291.578 22.0781 294.109 24.0938C299.781 28.5938 302.617 33.9375 302.617 40.125C302.617 47.4375 298.75 55.4531 291.016 64.1719C279.953 76.6406 264.109 87.75 243.484 97.5C230.5 103.594 217.469 107.906 204.391 110.438C197.922 111.656 191.617 112.266 185.477 112.266C179.383 112.266 174.109 111.445 169.656 109.805C165.25 108.117 161.641 106.031 158.828 103.547C156.062 101.062 154.047 98.3906 152.781 95.5312C151.516 92.6719 150.883 89.6484 150.883 86.4609C150.883 83.2734 151.82 79.5469 153.695 75.2812C155.617 71.0156 158.078 66.7969 161.078 62.625C164.125 58.4062 167.523 54.3281 171.273 50.3906C175.07 46.4062 178.844 42.7266 182.594 39.3516C189.062 33.5859 195.273 28.6406 201.227 24.5156C207.227 20.3438 212.289 17.0625 216.414 14.6719C220.539 12.2812 223.984 10.4531 226.75 9.1875C231.438 6.98438 234.297 5.88281 235.328 5.88281C236.359 5.88281 237.508 6.1875 238.773 6.79688C240.086 7.40625 241.516 8.13281 243.062 8.97656C246.906 11.1328 249.414 12.75 250.586 13.8281ZM185.125 91.5938C185.969 91.6406 187.539 91.6641 189.836 91.6641C192.133 91.6641 195.461 91.0781 199.82 89.9062C204.18 88.7344 208.633 87.1641 213.18 85.1953C217.727 83.1797 222.273 80.8594 226.82 78.2344C231.414 75.5625 235.797 72.7734 239.969 69.8672C244.141 66.9609 248.031 64.0078 251.641 61.0078C255.297 57.9609 258.461 55.0312 261.133 52.2188C266.852 46.2656 269.711 41.7422 269.711 38.6484C269.711 35.4609 267.789 33.0938 263.945 31.5469C261.367 30.4688 258.602 29.9297 255.648 29.9297C250.727 29.9297 246.672 30.3516 243.484 31.1953C229.797 37.6172 216.461 46.0078 203.477 56.3672C194.195 63.7734 187.562 70.7812 183.578 77.3906C181.516 80.8125 180.484 84 180.484 86.9531C180.484 89.8594 182.031 91.4062 185.125 91.5938Z" stroke="#a4def9" stroke-width="5" mask="url(#path-1-outside-1)"/>
<path d="M319 91.1719C318.156 91.5469 317.195 91.7344 316.117 91.7344C315.086 91.7344 313.914 90.9844 312.602 89.4844C311.336 87.9844 310.188 86.1094 309.156 83.8594C306.906 78.7969 305.781 73.8516 305.781 69.0234C305.781 65.9766 306.367 63.5625 307.539 61.7812C307.539 61.7812 309.719 59.3906 314.078 54.6094C316.141 52.2656 318.367 50.2031 320.758 48.4219C348.414 28.2656 376.422 17.4375 404.781 15.9375C408.766 15.7031 411.859 15.5859 414.062 15.5859C416.266 15.5859 418.047 15.9141 419.406 16.5703C420.812 17.1797 422.148 18 423.414 19.0312C424.68 20.0156 425.875 21.1406 427 22.4062C428.125 23.625 429.109 24.8438 429.953 26.0625C431.734 28.5469 432.625 30.3047 432.625 31.3359C432.625 32.3672 432.414 33.5859 431.992 34.9922C431.57 36.3516 431.078 37.8516 430.516 39.4922C429.953 41.0859 429.344 42.6797 428.688 44.2734L427.141 48.3516C420.156 66.3984 411.859 83.3438 402.25 99.1875C399.062 104.484 396.391 108.562 394.234 111.422C392.125 114.328 390.344 116.648 388.891 118.383C387.484 120.117 385.961 121.828 384.32 123.516C382.68 125.203 380.922 126.797 379.047 128.297C377.172 129.844 375.25 131.203 373.281 132.375C368.969 134.906 364.703 136.172 360.484 136.172C357.672 136.172 354.484 134.695 350.922 131.742C347.172 128.602 345.297 125.414 345.297 122.18C345.297 116.93 350.43 109.266 360.695 99.1875C366.086 93.8906 370.984 89.6016 375.391 86.3203C379.797 82.9922 382.984 80.7422 384.953 79.5703C392.312 65.6484 396.836 56.9297 398.523 53.4141L402.461 45.0469C404.43 40.6875 405.414 38.0859 405.414 37.2422C405.414 35.1328 404.289 34.0781 402.039 34.0781C399.789 34.0781 396.906 34.6172 393.391 35.6953C389.875 36.7734 386.102 38.25 382.07 40.125C378.039 41.9531 373.844 44.1094 369.484 46.5938C365.172 49.0312 360.93 51.6328 356.758 54.3984C352.633 57.1172 348.672 59.9297 344.875 62.8359C341.125 65.7422 337.797 68.5547 334.891 71.2734C328.469 77.2266 324.953 81.8203 324.344 85.0547C323.734 87.9609 321.953 90 319 91.1719Z" stroke="#a4def9" stroke-width="5" mask="url(#path-1-outside-1)"/>
<path d="M538.445 13.8281C540.742 13.0312 543.297 12.6328 546.109 12.6328C548.969 12.6328 551.828 12.8438 554.688 13.2656C557.594 13.6875 560.641 14.3672 563.828 15.3047C567.016 16.2422 570.203 17.4375 573.391 18.8906C576.578 20.3438 579.438 22.0781 581.969 24.0938C587.641 28.5938 590.477 33.9375 590.477 40.125C590.477 47.4375 586.609 55.4531 578.875 64.1719C567.812 76.6406 551.969 87.75 531.344 97.5C518.359 103.594 505.328 107.906 492.25 110.438C485.781 111.656 479.477 112.266 473.336 112.266C467.242 112.266 461.969 111.445 457.516 109.805C453.109 108.117 449.5 106.031 446.688 103.547C443.922 101.062 441.906 98.3906 440.641 95.5312C439.375 92.6719 438.742 89.6484 438.742 86.4609C438.742 83.2734 439.68 79.5469 441.555 75.2812C443.477 71.0156 445.938 66.7969 448.938 62.625C451.984 58.4062 455.383 54.3281 459.133 50.3906C462.93 46.4062 466.703 42.7266 470.453 39.3516C476.922 33.5859 483.133 28.6406 489.086 24.5156C495.086 20.3438 500.148 17.0625 504.273 14.6719C508.398 12.2812 511.844 10.4531 514.609 9.1875C519.297 6.98438 522.156 5.88281 523.188 5.88281C524.219 5.88281 525.367 6.1875 526.633 6.79688C527.945 7.40625 529.375 8.13281 530.922 8.97656C534.766 11.1328 537.273 12.75 538.445 13.8281ZM472.984 91.5938C473.828 91.6406 475.398 91.6641 477.695 91.6641C479.992 91.6641 483.32 91.0781 487.68 89.9062C492.039 88.7344 496.492 87.1641 501.039 85.1953C505.586 83.1797 510.133 80.8594 514.68 78.2344C519.273 75.5625 523.656 72.7734 527.828 69.8672C532 66.9609 535.891 64.0078 539.5 61.0078C543.156 57.9609 546.32 55.0312 548.992 52.2188C554.711 46.2656 557.57 41.7422 557.57 38.6484C557.57 35.4609 555.648 33.0938 551.805 31.5469C549.227 30.4688 546.461 29.9297 543.508 29.9297C538.586 29.9297 534.531 30.3516 531.344 31.1953C517.656 37.6172 504.32 46.0078 491.336 56.3672C482.055 63.7734 475.422 70.7812 471.438 77.3906C469.375 80.8125 468.344 84 468.344 86.9531C468.344 89.8594 469.891 91.4062 472.984 91.5938Z" stroke="#a4def9" stroke-width="5" mask="url(#path-1-outside-1)"/>
<path d="M644.688 55.0312C637.609 56.1562 631.797 56.7188 627.25 56.7188C622.75 56.7188 619 56.3906 616 55.7344C613 55.0781 610.188 54.0703 607.562 52.7109C601.609 49.6172 598.164 45.3281 597.227 39.8438C596.852 36.9844 597.625 35.2266 599.547 34.5703C600.109 34.3828 600.766 34.2891 601.516 34.2891C602.312 34.2891 603.133 34.4766 603.977 34.8516C607.023 37.0547 612.32 38.7188 619.867 39.8438C621.602 40.0781 622.984 40.1953 624.016 40.1953C625.047 40.1953 626.406 40.1484 628.094 40.0547C629.781 39.9609 631.562 39.7734 633.438 39.4922C637.984 38.8359 641.641 37.7578 644.406 36.2578C647.219 34.7109 649.773 33.0234 652.07 31.1953C654.367 29.3672 656.523 27.5625 658.539 25.7812L664.375 20.5781C668.312 17.0625 671.898 14.7656 675.133 13.6875C678.367 12.6094 680.898 12.0703 682.727 12.0703C684.555 12.0703 686.266 12.3516 687.859 12.9141C689.5 13.4297 691.141 14.1562 692.781 15.0938C696.906 17.4375 698.969 19.875 698.969 22.4062C698.969 25.7812 697.094 29.5312 693.344 33.6562C689.453 37.875 684.742 41.2734 679.211 43.8516C662.148 64.2891 652.375 76.125 649.891 79.3594L659.875 83.0156C672.297 87.7031 681.625 90.0469 687.859 90.0469C691.141 90.0469 695.078 88.7109 699.672 86.0391C701.125 85.1953 702.438 84.1406 703.609 82.875C705.906 80.3906 708.133 79.1484 710.289 79.1484C712.445 79.1484 714.016 79.7812 715 81.0469C716.031 82.3125 716.359 83.8359 715.984 85.6172C715.656 87.3984 714.953 89.3203 713.875 91.3828C712.797 93.3984 711.414 95.5312 709.727 97.7812C708.086 99.9844 706.164 102.211 703.961 104.461C701.805 106.664 699.484 108.656 697 110.438C691.328 114.375 685.938 116.344 680.828 116.344C677.453 116.344 672.133 115.242 664.867 113.039L638.922 105.375C635.547 104.391 632.359 103.547 629.359 102.844C623.359 108 616.867 111.141 609.883 112.266C607.352 112.641 604.68 112.828 601.867 112.828C599.055 112.828 596.852 112.453 595.258 111.703C593.664 111 592.445 110.062 591.602 108.891C590.242 106.922 589.562 103.875 589.562 99.75C589.562 97.3594 591.438 94.1016 595.188 89.9766C601.703 82.8984 608.922 78 616.844 75.2812C619.656 74.2969 622.094 73.8047 624.156 73.8047C626.266 73.8047 628.516 73.9688 630.906 74.2969C639.109 64.3125 643.703 57.8906 644.688 55.0312ZM675.273 45.4688C675.086 45.7031 675.039 45.7969 675.133 45.75C675.227 45.7031 675.438 45.5625 675.766 45.3281L675.273 45.4688Z" stroke="#a4def9" stroke-width="5" mask="url(#path-1-outside-1)"/>
<path d="M799.867 108.68C798.086 106.992 796.75 105.094 795.859 102.984C794.969 100.828 794.523 98.9766 794.523 97.4297C794.523 95.8359 794.945 93.9609 795.789 91.8047C796.633 89.6484 797.781 87.1641 799.234 84.3516C800.688 81.4922 802.375 78.3984 804.297 75.0703C806.219 71.6953 808.281 68.2969 810.484 64.875L817.094 54.6797C819.391 51.3516 821.641 48.2578 823.844 45.3984C814.469 48.3984 807.508 51.3281 802.961 54.1875C798.461 57 794.992 59.0625 792.555 60.375C790.117 61.6875 788.102 62.3438 786.508 62.3438C783.883 62.3438 782.57 60.7031 782.57 57.4219C782.57 52.7344 785.008 46.9688 789.883 40.125C794.945 33.0469 800.172 28.6641 805.562 26.9766C811 25.2891 817.047 23.6953 823.703 22.1953C830.406 20.6484 837.367 19.3125 844.586 18.1875C860.242 15.75 874.797 14.5312 888.25 14.5312C903.625 14.5312 913.445 15.9844 917.711 18.8906C921.508 21.4688 924.086 25.0312 925.445 29.5781C926.102 31.7812 926.43 34.1484 926.43 36.6797C926.43 39.2109 925.188 41.8594 922.703 44.625C920.266 47.3438 917.008 49.9219 912.93 52.3594C905.242 57.0469 895.164 61.2656 882.695 65.0156C889.773 66.375 894.672 67.9453 897.391 69.7266C900.156 71.4609 902.102 73.2188 903.227 75C904.352 76.7344 904.914 78.9609 904.914 81.6797C904.914 84.3516 903.742 87.1172 901.398 89.9766C899.055 92.8359 895.797 95.5078 891.625 97.9922C887.5 100.477 882.602 102.727 876.93 104.742C871.305 106.758 865.188 108.469 858.578 109.875C844.797 112.875 830.453 114.375 815.547 114.375C809.078 114.375 803.852 112.477 799.867 108.68ZM839.031 55.875C832 68.0625 828.484 76.5 828.484 81.1875C828.484 83.3438 829.609 85.3594 831.859 87.2344C833.969 89.0156 836.172 89.9062 838.469 89.9062C840.766 89.9062 843.297 89.8125 846.062 89.625C848.828 89.3906 851.664 89.0859 854.57 88.7109C857.477 88.3359 860.336 87.8906 863.148 87.375C865.961 86.8594 868.469 86.2734 870.672 85.6172C875.547 84.1641 877.984 82.6875 877.984 81.1875C877.984 78.4688 874.211 76.2188 866.664 74.4375C860.523 73.0312 854.664 72.3281 849.086 72.3281C846.93 72.3281 845.383 71.9062 844.445 71.0625C843.508 70.1719 843.039 69.1641 843.039 68.0391C843.039 66.8672 843.602 65.6719 844.727 64.4531C845.898 63.1875 847.469 62.1562 849.438 61.3594C865.375 57.375 878.688 52.8984 889.375 47.9297C894.625 45.4922 897.25 43.6406 897.25 42.375C897.25 40.5469 896.711 39.0703 895.633 37.9453C893.711 35.9297 891.578 34.9219 889.234 34.9219C886.891 34.9219 884.219 35.0156 881.219 35.2031C878.219 35.3906 874.984 35.6719 871.516 36.0469C863.875 36.7969 856.305 37.875 848.805 39.2812C847.727 41.4844 846.297 43.9688 844.516 46.7344L839.031 55.875Z" stroke="#a4def9" stroke-width="5" mask="url(#path-1-outside-1)"/>
<path d="M1029.09 13.8281C1031.38 13.0312 1033.94 12.6328 1036.75 12.6328C1039.61 12.6328 1042.47 12.8438 1045.33 13.2656C1048.23 13.6875 1051.28 14.3672 1054.47 15.3047C1057.66 16.2422 1060.84 17.4375 1064.03 18.8906C1067.22 20.3438 1070.08 22.0781 1072.61 24.0938C1078.28 28.5938 1081.12 33.9375 1081.12 40.125C1081.12 47.4375 1077.25 55.4531 1069.52 64.1719C1058.45 76.6406 1042.61 87.75 1021.98 97.5C1009 103.594 995.969 107.906 982.891 110.438C976.422 111.656 970.117 112.266 963.977 112.266C957.883 112.266 952.609 111.445 948.156 109.805C943.75 108.117 940.141 106.031 937.328 103.547C934.562 101.062 932.547 98.3906 931.281 95.5312C930.016 92.6719 929.383 89.6484 929.383 86.4609C929.383 83.2734 930.32 79.5469 932.195 75.2812C934.117 71.0156 936.578 66.7969 939.578 62.625C942.625 58.4062 946.023 54.3281 949.773 50.3906C953.57 46.4062 957.344 42.7266 961.094 39.3516C967.562 33.5859 973.773 28.6406 979.727 24.5156C985.727 20.3438 990.789 17.0625 994.914 14.6719C999.039 12.2812 1002.48 10.4531 1005.25 9.1875C1009.94 6.98438 1012.8 5.88281 1013.83 5.88281C1014.86 5.88281 1016.01 6.1875 1017.27 6.79688C1018.59 7.40625 1020.02 8.13281 1021.56 8.97656C1025.41 11.1328 1027.91 12.75 1029.09 13.8281ZM963.625 91.5938C964.469 91.6406 966.039 91.6641 968.336 91.6641C970.633 91.6641 973.961 91.0781 978.32 89.9062C982.68 88.7344 987.133 87.1641 991.68 85.1953C996.227 83.1797 1000.77 80.8594 1005.32 78.2344C1009.91 75.5625 1014.3 72.7734 1018.47 69.8672C1022.64 66.9609 1026.53 64.0078 1030.14 61.0078C1033.8 57.9609 1036.96 55.0312 1039.63 52.2188C1045.35 46.2656 1048.21 41.7422 1048.21 38.6484C1048.21 35.4609 1046.29 33.0938 1042.45 31.5469C1039.87 30.4688 1037.1 29.9297 1034.15 29.9297C1029.23 29.9297 1025.17 30.3516 1021.98 31.1953C1008.3 37.6172 994.961 46.0078 981.977 56.3672C972.695 63.7734 966.062 70.7812 962.078 77.3906C960.016 80.8125 958.984 84 958.984 86.9531C958.984 89.8594 960.531 91.4062 963.625 91.5938Z" stroke="#a4def9" stroke-width="5" mask="url(#path-1-outside-1)"/>
<path d="M1197.2 40.2656C1192.56 40.2656 1189.33 38.0625 1187.5 33.6562C1180.75 33.6562 1173.34 35.2969 1165.28 38.5781C1160.27 40.6406 1156.89 42.5391 1155.16 44.2734C1153.42 46.0078 1152.48 47.3672 1152.34 48.3516C1152.25 49.3359 1152.74 50.1797 1153.82 50.8828C1154.9 51.5391 1156.4 52.1719 1158.32 52.7812C1160.29 53.3906 1162.56 54 1165.14 54.6094C1178.64 57.75 1187.2 59.9297 1190.8 61.1484C1197.98 63.5391 1203.34 66.1641 1206.91 69.0234C1210.28 71.8828 1211.97 75.7734 1211.97 80.6953C1211.97 84.7734 1210.7 88.2188 1208.17 91.0312C1205.69 93.8438 1202.38 96.3516 1198.26 98.5547C1194.13 100.758 1189.52 102.727 1184.41 104.461C1179.34 106.148 1173.98 107.602 1168.3 108.82C1162.68 110.039 1157.12 111.047 1151.64 111.844C1140.91 113.344 1131.74 114.094 1124.15 114.094C1110.32 114.094 1099.66 112.43 1092.16 109.102C1089.34 107.836 1087.05 104.672 1085.27 99.6094C1083.86 95.4375 1083.16 92.0156 1083.16 89.3438C1083.16 86.625 1083.39 85.125 1083.86 84.8438C1084.33 84.5625 1085.29 84.5625 1086.74 84.8438C1088.2 85.0781 1090.09 85.5 1092.44 86.1094L1100.88 88.3594C1113.95 91.6406 1127.78 93.2812 1142.36 93.2812C1153.09 93.2812 1162.19 92.3203 1169.64 90.3984C1174.05 89.2266 1176.39 87.9141 1176.67 86.4609C1176.86 85.1953 1173.39 83.625 1166.27 81.75C1163.03 80.8594 1159.28 79.9219 1155.02 78.9375C1134.34 73.9219 1121.88 70.6875 1117.61 69.2344C1113.34 67.7812 1110.55 66.4922 1109.24 65.3672C1107.98 64.2422 1106.92 63 1106.08 61.6406C1104.53 58.9688 1103.76 56.4375 1103.76 54.0469C1103.76 51.6094 1103.88 49.7344 1104.11 48.4219C1104.39 47.1094 1104.77 45.8906 1105.23 44.7656C1106.22 42.4688 1107.46 40.8984 1108.96 40.0547C1121.01 33.3047 1138.7 27.375 1162.05 22.2656C1182.81 17.6719 1199.9 15.375 1213.3 15.375C1216.02 15.375 1218.06 15.8438 1219.42 16.7812C1221.77 18.5156 1222.8 20.3672 1222.52 22.3359C1222.23 24.3047 1221.62 26.1328 1220.69 27.8203C1219.8 29.4609 1218.67 30.9609 1217.31 32.3203C1215.95 33.6328 1214.43 34.8047 1212.74 35.8359C1211.1 36.8203 1209.39 37.6406 1207.61 38.2969C1204.05 39.6094 1200.58 40.2656 1197.2 40.2656Z" stroke="#a4def9" stroke-width="5" mask="url(#path-1-outside-1)"/>
<path d="M1241.22 109.102C1237.61 107.508 1234.77 105.516 1232.71 103.125C1230.7 100.734 1229.36 98.4844 1228.7 96.375C1227.67 93.2344 1227.16 90.5391 1227.16 88.2891C1227.16 86.0391 1227.88 83.4609 1229.34 80.5547C1230.84 77.6484 1233.3 74.7656 1236.72 71.9062C1244.22 65.6719 1255.73 60.3281 1271.24 55.875C1266.27 53.7656 1263.44 50.4141 1262.73 45.8203C1262.03 40.5703 1264.28 35.9062 1269.48 31.8281C1279.09 24.2812 1297.56 19.1719 1324.89 16.5C1333.33 15.7031 1339.45 15.3047 1343.24 15.3047C1347.09 15.3047 1349.8 15.9141 1351.4 17.1328C1353.04 18.3516 1354 20.1797 1354.28 22.6172C1354.61 25.0078 1354.16 27.0234 1352.95 28.6641C1351.73 30.3047 1349.99 31.6172 1347.74 32.6016C1343.57 34.4297 1337.88 35.3438 1330.66 35.3438C1325.36 35.3438 1320.53 34.5469 1316.17 32.9531C1315 32.4844 1314.09 31.9922 1313.43 31.4766C1304.05 34.3828 1298.73 37.6406 1297.47 41.25C1297.09 42.1875 1296.95 43.0547 1297.05 43.8516C1297.47 46.7109 1299.34 48.8203 1302.67 50.1797C1306 51.5391 1311.06 52.4062 1317.86 52.7812C1320.11 52.9688 1321.77 53.5781 1322.85 54.6094C1323.98 55.6406 1324.61 56.7188 1324.75 57.8438C1324.94 58.9688 1324.87 59.8594 1324.54 60.5156C1324.21 61.125 1323.72 61.6406 1323.06 62.0625C1321.94 62.8125 1319.71 63.4453 1316.38 63.9609C1313.05 64.4766 1309.19 65.2031 1304.78 66.1406C1300.38 67.0312 1296.18 67.9922 1292.2 69.0234C1288.21 70.0547 1284.51 71.1094 1281.09 72.1875C1277.71 73.2656 1274.78 74.2969 1272.3 75.2812C1267.05 77.4844 1264.52 79.2656 1264.7 80.625C1264.89 81.9375 1265.43 83.0859 1266.32 84.0703C1267.21 85.0547 1268.41 85.9219 1269.91 86.6719C1272.72 87.9844 1276.14 88.8281 1280.17 89.2031C1284.25 89.5312 1288.19 89.6953 1291.98 89.6953C1295.83 89.6953 1299.93 89.3906 1304.29 88.7812C1308.7 88.125 1312.8 87.3047 1316.59 86.3203C1320.44 85.3359 1323.95 84.3047 1327.14 83.2266C1330.38 82.1016 1333.19 81.0469 1335.58 80.0625L1341.34 77.6719C1342.84 77.0156 1344.2 76.6875 1345.42 76.6875C1348.66 76.6875 1350.48 78.3984 1350.91 81.8203C1351.47 86.4609 1346.27 91.6875 1335.3 97.5C1320.62 105.328 1304.41 110.438 1286.64 112.828C1282.52 113.391 1277.55 113.672 1271.73 113.672C1265.97 113.672 1260.34 113.297 1254.86 112.547C1249.38 111.797 1244.83 110.648 1241.22 109.102Z" stroke="#a4def9" stroke-width="5" mask="url(#path-1-outside-1)"/>
</svg> -->



<svg viewBox="180 0 834 125" fill="none" xmlns="http://www.w3.org/2000/svg">
<!-- <mask id="path-1-outside-1" maskUnits="userSpaceOnUse" x="-0.880005" y="0.0399933" width="935" height="125" fill="black">
<rect fill="white" x="-0.880005" y="0.0399933" width="935" height="125"/>
<path d="M43.68 119.12C36.32 119.12 29.7067 117.84 23.84 115.28C18.08 112.613 13.5467 108.987 10.24 104.4C6.93333 99.7067 5.22666 94.32 5.12 88.24H20.64C21.1733 93.4667 23.3067 97.8933 27.04 101.52C30.88 105.04 36.4267 106.8 43.68 106.8C50.6133 106.8 56.0533 105.093 60 101.68C64.0533 98.16 66.08 93.68 66.08 88.24C66.08 83.9733 64.9067 80.5067 62.56 77.84C60.2133 75.1733 57.28 73.1467 53.76 71.76C50.24 70.3733 45.4933 68.88 39.52 67.28C32.16 65.36 26.24 63.44 21.76 61.52C17.3867 59.6 13.6 56.6133 10.4 52.56C7.30666 48.4 5.75999 42.8533 5.75999 35.92C5.75999 29.84 7.30666 24.4533 10.4 19.76C13.4933 15.0667 17.8133 11.44 23.36 8.87999C29.0133 6.31999 35.4667 5.03999 42.72 5.03999C53.1733 5.03999 61.7067 7.65333 68.32 12.88C75.04 18.1067 78.8267 25.04 79.68 33.68H63.68C63.1467 29.4133 60.9067 25.68 56.96 22.48C53.0133 19.1733 47.7867 17.52 41.28 17.52C35.2 17.52 30.24 19.12 26.4 22.32C22.56 25.4133 20.64 29.7867 20.64 35.44C20.64 39.4933 21.76 42.8 24 45.36C26.3467 47.92 29.1733 49.8933 32.48 51.28C35.8933 52.56 40.64 54.0533 46.72 55.76C54.08 57.7867 60 59.8133 64.48 61.84C68.96 63.76 72.8 66.8 76 70.96C79.2 75.0133 80.8 80.56 80.8 87.6C80.8 93.04 79.36 98.16 76.48 102.96C73.6 107.76 69.3333 111.653 63.68 114.64C58.0267 117.627 51.36 119.12 43.68 119.12Z"/>
<path d="M152.786 119.12C142.44 119.12 133 116.72 124.466 111.92C115.933 107.013 109.16 100.24 104.146 91.6C99.2396 82.8533 96.7862 73.04 96.7862 62.16C96.7862 51.28 99.2396 41.52 104.146 32.88C109.16 24.1333 115.933 17.36 124.466 12.56C133 7.65333 142.44 5.19999 152.786 5.19999C163.24 5.19999 172.733 7.65333 181.266 12.56C189.8 17.36 196.52 24.08 201.426 32.72C206.333 41.36 208.786 51.1733 208.786 62.16C208.786 73.1467 206.333 82.96 201.426 91.6C196.52 100.24 189.8 107.013 181.266 111.92C172.733 116.72 163.24 119.12 152.786 119.12ZM152.786 106.48C160.573 106.48 167.56 104.667 173.746 101.04C180.04 97.4133 184.946 92.24 188.466 85.52C192.093 78.8 193.906 71.0133 193.906 62.16C193.906 53.2 192.093 45.4133 188.466 38.8C184.946 32.08 180.093 26.9067 173.906 23.28C167.72 19.6533 160.68 17.84 152.786 17.84C144.893 17.84 137.853 19.6533 131.666 23.28C125.48 26.9067 120.573 32.08 116.946 38.8C113.426 45.4133 111.666 53.2 111.666 62.16C111.666 71.0133 113.426 78.8 116.946 85.52C120.573 92.24 125.48 97.4133 131.666 101.04C137.96 104.667 145 106.48 152.786 106.48Z"/>
<path d="M284.168 6.48V88.88C284.168 98.0533 281.341 105.413 275.688 110.96C270.034 116.4 262.568 119.12 253.288 119.12C243.901 119.12 236.381 116.347 230.727 110.8C225.074 105.147 222.247 97.4667 222.247 87.76H236.807C236.914 93.2 238.301 97.6267 240.967 101.04C243.741 104.453 247.848 106.16 253.288 106.16C258.728 106.16 262.781 104.56 265.448 101.36C268.114 98.0533 269.448 93.8933 269.448 88.88V6.48H284.168Z"/>
<path d="M363.411 119.12C353.065 119.12 343.625 116.72 335.091 111.92C326.558 107.013 319.785 100.24 314.771 91.6C309.865 82.8533 307.411 73.04 307.411 62.16C307.411 51.28 309.865 41.52 314.771 32.88C319.785 24.1333 326.558 17.36 335.091 12.56C343.625 7.65333 353.065 5.19999 363.411 5.19999C373.865 5.19999 383.358 7.65333 391.891 12.56C400.425 17.36 407.145 24.08 412.051 32.72C416.958 41.36 419.411 51.1733 419.411 62.16C419.411 73.1467 416.958 82.96 412.051 91.6C407.145 100.24 400.425 107.013 391.891 111.92C383.358 116.72 373.865 119.12 363.411 119.12ZM363.411 106.48C371.198 106.48 378.185 104.667 384.371 101.04C390.665 97.4133 395.571 92.24 399.091 85.52C402.718 78.8 404.531 71.0133 404.531 62.16C404.531 53.2 402.718 45.4133 399.091 38.8C395.571 32.08 390.718 26.9067 384.531 23.28C378.345 19.6533 371.305 17.84 363.411 17.84C355.518 17.84 348.478 19.6533 342.291 23.28C336.105 26.9067 331.198 32.08 327.571 38.8C324.051 45.4133 322.291 53.2 322.291 62.16C322.291 71.0133 324.051 78.8 327.571 85.52C331.198 92.24 336.105 97.4133 342.291 101.04C348.585 104.667 355.625 106.48 363.411 106.48Z"/>
<path d="M453.193 106.16H492.233V118H438.633V6.48H453.193V106.16Z"/>
<path d="M606.191 60.56C610.245 61.2 613.925 62.8533 617.231 65.52C620.645 68.1867 623.311 71.4933 625.231 75.44C627.258 79.3867 628.271 83.6 628.271 88.08C628.271 93.7333 626.831 98.8533 623.951 103.44C621.071 107.92 616.858 111.493 611.311 114.16C605.871 116.72 599.418 118 591.951 118H550.351V6.48H590.351C597.925 6.48 604.378 7.75999 609.711 10.32C615.045 12.7733 619.045 16.1333 621.711 20.4C624.378 24.6667 625.711 29.4667 625.711 34.8C625.711 41.4133 623.898 46.9067 620.271 51.28C616.751 55.5467 612.058 58.64 606.191 60.56ZM564.911 54.64H589.391C596.218 54.64 601.498 53.04 605.231 49.84C608.965 46.64 610.831 42.2133 610.831 36.56C610.831 30.9067 608.965 26.48 605.231 23.28C601.498 20.08 596.111 18.48 589.071 18.48H564.911V54.64ZM590.671 106C597.925 106 603.578 104.293 607.631 100.88C611.685 97.4667 613.711 92.72 613.711 86.64C613.711 80.4533 611.578 75.6 607.311 72.08C603.045 68.4533 597.338 66.64 590.191 66.64H564.911V106H590.671Z"/>
<path d="M699.036 119.12C688.69 119.12 679.25 116.72 670.716 111.92C662.183 107.013 655.41 100.24 650.396 91.6C645.49 82.8533 643.036 73.04 643.036 62.16C643.036 51.28 645.49 41.52 650.396 32.88C655.41 24.1333 662.183 17.36 670.716 12.56C679.25 7.65333 688.69 5.19999 699.036 5.19999C709.49 5.19999 718.983 7.65333 727.516 12.56C736.05 17.36 742.77 24.08 747.676 32.72C752.583 41.36 755.036 51.1733 755.036 62.16C755.036 73.1467 752.583 82.96 747.676 91.6C742.77 100.24 736.05 107.013 727.516 111.92C718.983 116.72 709.49 119.12 699.036 119.12ZM699.036 106.48C706.823 106.48 713.81 104.667 719.996 101.04C726.29 97.4133 731.196 92.24 734.716 85.52C738.343 78.8 740.156 71.0133 740.156 62.16C740.156 53.2 738.343 45.4133 734.716 38.8C731.196 32.08 726.343 26.9067 720.156 23.28C713.97 19.6533 706.93 17.84 699.036 17.84C691.143 17.84 684.103 19.6533 677.916 23.28C671.73 26.9067 666.823 32.08 663.196 38.8C659.676 45.4133 657.916 53.2 657.916 62.16C657.916 71.0133 659.676 78.8 663.196 85.52C666.823 92.24 671.73 97.4133 677.916 101.04C684.21 104.667 691.25 106.48 699.036 106.48Z"/>
<path d="M809.617 119.12C802.257 119.12 795.644 117.84 789.778 115.28C784.018 112.613 779.484 108.987 776.177 104.4C772.871 99.7067 771.164 94.32 771.057 88.24H786.578C787.111 93.4667 789.244 97.8933 792.977 101.52C796.817 105.04 802.364 106.8 809.617 106.8C816.551 106.8 821.991 105.093 825.938 101.68C829.991 98.16 832.018 93.68 832.018 88.24C832.018 83.9733 830.844 80.5067 828.497 77.84C826.151 75.1733 823.218 73.1467 819.698 71.76C816.178 70.3733 811.431 68.88 805.458 67.28C798.098 65.36 792.178 63.44 787.698 61.52C783.324 59.6 779.538 56.6133 776.338 52.56C773.244 48.4 771.698 42.8533 771.698 35.92C771.698 29.84 773.244 24.4533 776.338 19.76C779.431 15.0667 783.751 11.44 789.297 8.87999C794.951 6.31999 801.404 5.03999 808.658 5.03999C819.111 5.03999 827.644 7.65333 834.258 12.88C840.978 18.1067 844.764 25.04 845.617 33.68H829.617C829.084 29.4133 826.844 25.68 822.898 22.48C818.951 19.1733 813.724 17.52 807.218 17.52C801.138 17.52 796.178 19.12 792.338 22.32C788.498 25.4133 786.578 29.7867 786.578 35.44C786.578 39.4933 787.698 42.8 789.938 45.36C792.284 47.92 795.111 49.8933 798.417 51.28C801.831 52.56 806.577 54.0533 812.657 55.76C820.017 57.7867 825.937 59.8133 830.417 61.84C834.897 63.76 838.738 66.8 841.938 70.96C845.138 75.0133 846.737 80.56 846.737 87.6C846.737 93.04 845.297 98.16 842.417 102.96C839.537 107.76 835.271 111.653 829.617 114.64C823.964 117.627 817.297 119.12 809.617 119.12Z"/>
<path d="M882.724 18.32V55.6H923.364V67.6H882.724V106H928.164V118H868.164V6.32H928.164V18.32H882.724Z"/>
</mask> -->
<path d="M43.68 119.12C36.32 119.12 29.7067 117.84 23.84 115.28C18.08 112.613 13.5467 108.987 10.24 104.4C6.93333 99.7067 5.22666 94.32 5.12 88.24H20.64C21.1733 93.4667 23.3067 97.8933 27.04 101.52C30.88 105.04 36.4267 106.8 43.68 106.8C50.6133 106.8 56.0533 105.093 60 101.68C64.0533 98.16 66.08 93.68 66.08 88.24C66.08 83.9733 64.9067 80.5067 62.56 77.84C60.2133 75.1733 57.28 73.1467 53.76 71.76C50.24 70.3733 45.4933 68.88 39.52 67.28C32.16 65.36 26.24 63.44 21.76 61.52C17.3867 59.6 13.6 56.6133 10.4 52.56C7.30666 48.4 5.75999 42.8533 5.75999 35.92C5.75999 29.84 7.30666 24.4533 10.4 19.76C13.4933 15.0667 17.8133 11.44 23.36 8.87999C29.0133 6.31999 35.4667 5.03999 42.72 5.03999C53.1733 5.03999 61.7067 7.65333 68.32 12.88C75.04 18.1067 78.8267 25.04 79.68 33.68H63.68C63.1467 29.4133 60.9067 25.68 56.96 22.48C53.0133 19.1733 47.7867 17.52 41.28 17.52C35.2 17.52 30.24 19.12 26.4 22.32C22.56 25.4133 20.64 29.7867 20.64 35.44C20.64 39.4933 21.76 42.8 24 45.36C26.3467 47.92 29.1733 49.8933 32.48 51.28C35.8933 52.56 40.64 54.0533 46.72 55.76C54.08 57.7867 60 59.8133 64.48 61.84C68.96 63.76 72.8 66.8 76 70.96C79.2 75.0133 80.8 80.56 80.8 87.6C80.8 93.04 79.36 98.16 76.48 102.96C73.6 107.76 69.3333 111.653 63.68 114.64C58.0267 117.627 51.36 119.12 43.68 119.12Z" stroke="#8dab7f" stroke-width="5" mask="url(#path-1-outside-1)"/>
<path d="M152.786 119.12C142.44 119.12 133 116.72 124.466 111.92C115.933 107.013 109.16 100.24 104.146 91.6C99.2396 82.8533 96.7862 73.04 96.7862 62.16C96.7862 51.28 99.2396 41.52 104.146 32.88C109.16 24.1333 115.933 17.36 124.466 12.56C133 7.65333 142.44 5.19999 152.786 5.19999C163.24 5.19999 172.733 7.65333 181.266 12.56C189.8 17.36 196.52 24.08 201.426 32.72C206.333 41.36 208.786 51.1733 208.786 62.16C208.786 73.1467 206.333 82.96 201.426 91.6C196.52 100.24 189.8 107.013 181.266 111.92C172.733 116.72 163.24 119.12 152.786 119.12ZM152.786 106.48C160.573 106.48 167.56 104.667 173.746 101.04C180.04 97.4133 184.946 92.24 188.466 85.52C192.093 78.8 193.906 71.0133 193.906 62.16C193.906 53.2 192.093 45.4133 188.466 38.8C184.946 32.08 180.093 26.9067 173.906 23.28C167.72 19.6533 160.68 17.84 152.786 17.84C144.893 17.84 137.853 19.6533 131.666 23.28C125.48 26.9067 120.573 32.08 116.946 38.8C113.426 45.4133 111.666 53.2 111.666 62.16C111.666 71.0133 113.426 78.8 116.946 85.52C120.573 92.24 125.48 97.4133 131.666 101.04C137.96 104.667 145 106.48 152.786 106.48Z" stroke="#8dab7f" stroke-width="5" mask="url(#path-1-outside-1)"/>
<path d="M284.168 6.48V88.88C284.168 98.0533 281.341 105.413 275.688 110.96C270.034 116.4 262.568 119.12 253.288 119.12C243.901 119.12 236.381 116.347 230.727 110.8C225.074 105.147 222.247 97.4667 222.247 87.76H236.807C236.914 93.2 238.301 97.6267 240.967 101.04C243.741 104.453 247.848 106.16 253.288 106.16C258.728 106.16 262.781 104.56 265.448 101.36C268.114 98.0533 269.448 93.8933 269.448 88.88V6.48H284.168Z" stroke="#8dab7f" stroke-width="5" mask="url(#path-1-outside-1)"/>
<path d="M363.411 119.12C353.065 119.12 343.625 116.72 335.091 111.92C326.558 107.013 319.785 100.24 314.771 91.6C309.865 82.8533 307.411 73.04 307.411 62.16C307.411 51.28 309.865 41.52 314.771 32.88C319.785 24.1333 326.558 17.36 335.091 12.56C343.625 7.65333 353.065 5.19999 363.411 5.19999C373.865 5.19999 383.358 7.65333 391.891 12.56C400.425 17.36 407.145 24.08 412.051 32.72C416.958 41.36 419.411 51.1733 419.411 62.16C419.411 73.1467 416.958 82.96 412.051 91.6C407.145 100.24 400.425 107.013 391.891 111.92C383.358 116.72 373.865 119.12 363.411 119.12ZM363.411 106.48C371.198 106.48 378.185 104.667 384.371 101.04C390.665 97.4133 395.571 92.24 399.091 85.52C402.718 78.8 404.531 71.0133 404.531 62.16C404.531 53.2 402.718 45.4133 399.091 38.8C395.571 32.08 390.718 26.9067 384.531 23.28C378.345 19.6533 371.305 17.84 363.411 17.84C355.518 17.84 348.478 19.6533 342.291 23.28C336.105 26.9067 331.198 32.08 327.571 38.8C324.051 45.4133 322.291 53.2 322.291 62.16C322.291 71.0133 324.051 78.8 327.571 85.52C331.198 92.24 336.105 97.4133 342.291 101.04C348.585 104.667 355.625 106.48 363.411 106.48Z" stroke="#8dab7f" stroke-width="5" mask="url(#path-1-outside-1)"/>
<path d="M453.193 106.16H492.233V118H438.633V6.48H453.193V106.16Z" stroke="#8dab7f" stroke-width="5" mask="url(#path-1-outside-1)"/>
<path d="M606.191 60.56C610.245 61.2 613.925 62.8533 617.231 65.52C620.645 68.1867 623.311 71.4933 625.231 75.44C627.258 79.3867 628.271 83.6 628.271 88.08C628.271 93.7333 626.831 98.8533 623.951 103.44C621.071 107.92 616.858 111.493 611.311 114.16C605.871 116.72 599.418 118 591.951 118H550.351V6.48H590.351C597.925 6.48 604.378 7.75999 609.711 10.32C615.045 12.7733 619.045 16.1333 621.711 20.4C624.378 24.6667 625.711 29.4667 625.711 34.8C625.711 41.4133 623.898 46.9067 620.271 51.28C616.751 55.5467 612.058 58.64 606.191 60.56ZM564.911 54.64H589.391C596.218 54.64 601.498 53.04 605.231 49.84C608.965 46.64 610.831 42.2133 610.831 36.56C610.831 30.9067 608.965 26.48 605.231 23.28C601.498 20.08 596.111 18.48 589.071 18.48H564.911V54.64ZM590.671 106C597.925 106 603.578 104.293 607.631 100.88C611.685 97.4667 613.711 92.72 613.711 86.64C613.711 80.4533 611.578 75.6 607.311 72.08C603.045 68.4533 597.338 66.64 590.191 66.64H564.911V106H590.671Z" stroke="#8dab7f" stroke-width="5" mask="url(#path-1-outside-1)"/>
<path d="M699.036 119.12C688.69 119.12 679.25 116.72 670.716 111.92C662.183 107.013 655.41 100.24 650.396 91.6C645.49 82.8533 643.036 73.04 643.036 62.16C643.036 51.28 645.49 41.52 650.396 32.88C655.41 24.1333 662.183 17.36 670.716 12.56C679.25 7.65333 688.69 5.19999 699.036 5.19999C709.49 5.19999 718.983 7.65333 727.516 12.56C736.05 17.36 742.77 24.08 747.676 32.72C752.583 41.36 755.036 51.1733 755.036 62.16C755.036 73.1467 752.583 82.96 747.676 91.6C742.77 100.24 736.05 107.013 727.516 111.92C718.983 116.72 709.49 119.12 699.036 119.12ZM699.036 106.48C706.823 106.48 713.81 104.667 719.996 101.04C726.29 97.4133 731.196 92.24 734.716 85.52C738.343 78.8 740.156 71.0133 740.156 62.16C740.156 53.2 738.343 45.4133 734.716 38.8C731.196 32.08 726.343 26.9067 720.156 23.28C713.97 19.6533 706.93 17.84 699.036 17.84C691.143 17.84 684.103 19.6533 677.916 23.28C671.73 26.9067 666.823 32.08 663.196 38.8C659.676 45.4133 657.916 53.2 657.916 62.16C657.916 71.0133 659.676 78.8 663.196 85.52C666.823 92.24 671.73 97.4133 677.916 101.04C684.21 104.667 691.25 106.48 699.036 106.48Z" stroke="#8dab7f" stroke-width="5" mask="url(#path-1-outside-1)"/>
<path d="M809.617 119.12C802.257 119.12 795.644 117.84 789.778 115.28C784.018 112.613 779.484 108.987 776.177 104.4C772.871 99.7067 771.164 94.32 771.057 88.24H786.578C787.111 93.4667 789.244 97.8933 792.977 101.52C796.817 105.04 802.364 106.8 809.617 106.8C816.551 106.8 821.991 105.093 825.938 101.68C829.991 98.16 832.018 93.68 832.018 88.24C832.018 83.9733 830.844 80.5067 828.497 77.84C826.151 75.1733 823.218 73.1467 819.698 71.76C816.178 70.3733 811.431 68.88 805.458 67.28C798.098 65.36 792.178 63.44 787.698 61.52C783.324 59.6 779.538 56.6133 776.338 52.56C773.244 48.4 771.698 42.8533 771.698 35.92C771.698 29.84 773.244 24.4533 776.338 19.76C779.431 15.0667 783.751 11.44 789.297 8.87999C794.951 6.31999 801.404 5.03999 808.658 5.03999C819.111 5.03999 827.644 7.65333 834.258 12.88C840.978 18.1067 844.764 25.04 845.617 33.68H829.617C829.084 29.4133 826.844 25.68 822.898 22.48C818.951 19.1733 813.724 17.52 807.218 17.52C801.138 17.52 796.178 19.12 792.338 22.32C788.498 25.4133 786.578 29.7867 786.578 35.44C786.578 39.4933 787.698 42.8 789.938 45.36C792.284 47.92 795.111 49.8933 798.417 51.28C801.831 52.56 806.577 54.0533 812.657 55.76C820.017 57.7867 825.937 59.8133 830.417 61.84C834.897 63.76 838.738 66.8 841.938 70.96C845.138 75.0133 846.737 80.56 846.737 87.6C846.737 93.04 845.297 98.16 842.417 102.96C839.537 107.76 835.271 111.653 829.617 114.64C823.964 117.627 817.297 119.12 809.617 119.12Z" stroke="#8dab7f" stroke-width="5" mask="url(#path-1-outside-1)"/>
<path d="M882.724 18.32V55.6H923.364V67.6H882.724V106H928.164V118H868.164V6.32H928.164V18.32H882.724Z" stroke="#8dab7f" stroke-width="5" mask="url(#path-1-outside-1)"/>
</svg>
